<svg xmlns="http://www.w3.org/2000/svg" viewBox="0 0 32 32" role="img" aria-label="DriveLog">
  <rect width="32" height="32" fill="#0B0D10"/>
  <rect x="8" y="6.5" width="11.5" height="16.5" rx="2.8" fill="#E8A317"/>
  <rect x="7" y="22.5" width="13.5" height="3.2" rx="1.6" fill="#E8A317"/>
  <rect x="10.2" y="9" width="7" height="5" rx="1.2" fill="#0B0D10"/>
  <path fill="#E8A317" d="M19.2 11.5h2.2c1.4 0 2.6 1.1 2.6 2.5v4.2c0 .7.4 1.2 1.1 1.4l1.4.4c.9.3 1.5 1.1 1.5 2.1v.6c0 1-.8 1.8-1.8 1.8h-1.1c-1 0-1.8-.8-1.8-1.8v-5.2c0-.9-.7-1.6-1.6-1.6h-1.5v-4.4z"/>
</svg>
